<?xml version="1.0" encoding="iso-8859-1"?>
<!-- Generator: Adobe Illustrator 19.0.0, SVG Export Plug-In . SVG Version: 6.00 Build 0)  -->
<svg version="1.1" id="Layer_1" xmlns="http://www.w3.org/2000/svg" xmlns:xlink="http://www.w3.org/1999/xlink" x="0px" y="0px"
	 viewBox="0 0 512.001 512.001" style="enable-background:new 0 0 512.001 512.001;" xml:space="preserve">
<circle style="fill:#00A2FF;" cx="255.997" cy="255.996" r="255.996"/>
<path style="fill:#0084FF;" d="M512.001,256.001c0-13.179-0.999-26.124-2.919-38.767l-35.697-35.697
	c-1.638-3.888-5.492-6.636-9.958-6.636h-12.142l-11.498-11.394c-1.638-3.888-5.492-6.636-9.958-6.636h-58.637l-52.15-55.774h-77.123
	l-28.404-27.869c-1.764-3.974-5.747-6.767-10.356-6.767H141.39c-6.231,0-11.328,5.097-11.328,11.328
	c0,2.914,1.124,5.571,2.949,7.584h-26.863c-6.231,0-11.328,5.097-11.328,11.328c0,4.609,2.793,8.591,6.767,10.355l71.313,72.34
	v14.579h-20.32v32.546h-20.115v32.546h-19.733v32.546H92.507v32.546h-22.45v32.546H47.966v33.866l95.337,95.337
	c34.007,16.701,72.253,26.095,112.698,26.095C397.385,512,512.001,397.385,512.001,256.001z"/>
<g>
	<path style="fill:#FFFFFF;" d="M106.146,85.372h26.863c-1.824-2.012-2.949-4.671-2.949-7.584c0-6.231,5.098-11.328,11.328-11.328
		h61.769c6.231,0,11.328,5.097,11.328,11.328c0,6.231-5.097,11.328-11.328,11.328h-26.863c1.824,2.012,2.949,4.67,2.949,7.584l0,0
		c0,6.231-5.097,11.328-11.328,11.328h-61.769c-6.231,0-11.328-5.097-11.328-11.328l0,0C94.818,90.469,99.916,85.372,106.146,85.372
		z"/>
	<path style="fill:#FFFFFF;" d="M463.426,174.9h-25.61c1.74-1.918,2.812-4.452,2.812-7.231c0-5.94-4.86-10.799-10.8-10.799h-58.889
		c-5.94,0-10.799,4.86-10.799,10.799s4.86,10.8,10.799,10.8h25.61c-1.74,1.918-2.812,4.452-2.812,7.231l0,0
		c0,5.94,4.86,10.8,10.8,10.8h58.889c5.939,0,10.799-4.86,10.799-10.8l0,0C474.225,179.76,469.365,174.9,463.426,174.9z"/>
</g>
<rect x="196.48" y="103.976" style="fill:#87858E;" width="119.044" height="59.078"/>
<rect x="255.997" y="103.976" style="fill:#78777F;" width="59.524" height="59.078"/>
<rect x="244.994" y="137.287" style="fill:#57555C;" width="22.005" height="25.771"/>
<rect x="255.997" y="137.287" style="fill:#3C3B41;" width="11.004" height="25.771"/>
<rect x="192.959" y="119.284" style="fill:#D4D4D6;" width="126.076" height="5.758"/>
<rect x="255.997" y="119.284" style="fill:#AAA9AF;" width="63.038" height="5.758"/>
<rect x="172.897" y="161.424" style="fill:#87858E;" width="166.199" height="33.866"/>
<rect x="255.997" y="161.424" style="fill:#78777F;" width="83.1" height="33.866"/>
<rect x="172.897" y="161.424" style="fill:#C4C2C8;" width="166.199" height="12.19"/>
<rect x="255.997" y="161.424" style="fill:#AAA9AF;" width="83.1" height="12.19"/>
<rect x="152.574" y="193.972" style="fill:#87858E;" width="206.845" height="33.866"/>
<rect x="255.997" y="193.972" style="fill:#78777F;" width="103.423" height="33.866"/>
<rect x="152.574" y="193.972" style="fill:#C4C2C8;" width="206.845" height="12.189"/>
<rect x="255.997" y="193.972" style="fill:#AAA9AF;" width="103.423" height="12.189"/>
<rect x="132.46" y="226.52" style="fill:#87858E;" width="247.073" height="33.866"/>
<rect x="255.997" y="226.52" style="fill:#78777F;" width="123.537" height="33.866"/>
<rect x="132.46" y="226.52" style="fill:#C4C2C8;" width="247.073" height="12.19"/>
<rect x="255.997" y="226.52" style="fill:#AAA9AF;" width="123.537" height="12.19"/>
<rect x="112.733" y="259.068" style="fill:#87858E;" width="286.538" height="33.866"/>
<rect x="255.997" y="259.068" style="fill:#78777F;" width="143.274" height="33.866"/>
<rect x="112.733" y="259.068" style="fill:#C4C2C8;" width="286.538" height="12.189"/>
<rect x="255.997" y="259.068" style="fill:#AAA9AF;" width="143.274" height="12.189"/>
<rect x="92.504" y="291.606" style="fill:#87858E;" width="326.986" height="33.866"/>
<rect x="255.997" y="291.606" style="fill:#78777F;" width="163.493" height="33.866"/>
<rect x="92.504" y="291.606" style="fill:#C4C2C8;" width="326.986" height="12.19"/>
<rect x="255.997" y="291.606" style="fill:#AAA9AF;" width="163.493" height="12.19"/>
<rect x="70.06" y="324.154" style="fill:#87858E;" width="371.884" height="33.866"/>
<rect x="255.997" y="324.154" style="fill:#78777F;" width="185.947" height="33.866"/>
<rect x="70.06" y="324.154" style="fill:#C4C2C8;" width="371.884" height="12.19"/>
<rect x="255.997" y="324.154" style="fill:#AAA9AF;" width="185.947" height="12.19"/>
<rect x="47.966" y="356.702" style="fill:#87858E;" width="416.072" height="33.866"/>
<rect x="255.997" y="356.702" style="fill:#78777F;" width="208.036" height="33.866"/>
<rect x="47.966" y="356.702" style="fill:#C4C2C8;" width="416.072" height="12.19"/>
<rect x="255.997" y="356.702" style="fill:#AAA9AF;" width="208.036" height="12.19"/>
<rect x="192.959" y="101.092" style="fill:#D4D4D6;" width="126.076" height="5.758"/>
<g>
	<rect x="255.997" y="101.092" style="fill:#AAA9AF;" width="63.038" height="5.758"/>
	<polygon style="fill:#AAA9AF;" points="211.746,161.428 189.714,390.569 322.287,390.569 300.255,161.428 	"/>
</g>
<polygon style="fill:#87858E;" points="322.287,390.569 300.255,161.428 256,161.428 256,390.569 "/>
<polygon style="fill:#DDDDDF;" points="206.354,390.569 189.714,390.569 211.746,161.428 228.387,161.428 "/>
<polygon style="fill:#C4C2C8;" points="305.647,390.569 322.287,390.569 300.255,161.428 283.614,161.428 "/>
<path style="fill:#00B764;" d="M256,512c92.101,0,172.83-48.647,217.928-121.637H38.072C83.17,463.353,163.899,512,256,512z"/>
<g>
	<rect x="98.941" y="422.216" style="fill:#008849;" width="68.262" height="12.809"/>
	<rect x="194.62" y="439.77" style="fill:#008849;" width="49.611" height="12.808"/>
	<rect x="169.815" y="467.512" style="fill:#008849;" width="49.611" height="12.808"/>
</g>
<path style="fill:#00884A;" d="M473.932,390.362c-0.888,1.431-1.776,2.842-2.696,4.253c-0.408,0.658-0.836,1.306-1.275,1.954
	c-0.439,0.679-0.888,1.348-1.337,2.017c-0.543,0.805-1.087,1.609-1.64,2.414c-0.637,0.919-1.275,1.839-1.923,2.758
	c-1.139,1.588-2.288,3.176-3.448,4.744c-0.136,0.188-0.282,0.376-0.418,0.564c-0.554,0.731-1.108,1.463-1.661,2.194
	c-46.759,61.23-120.527,100.737-203.533,100.737V390.362L473.932,390.362L473.932,390.362z"/>
<g>
	<rect x="347.623" y="422.216" style="fill:#007539;" width="68.262" height="12.809"/>
	<rect x="294.25" y="464.2" style="fill:#007539;" width="49.611" height="12.808"/>
	<rect x="271.994" y="436.991" style="fill:#007539;" width="49.611" height="12.808"/>
</g>
<path style="fill:#36C98C;" d="M38.072,390.363c4.456,7.213,9.266,14.183,14.394,20.897h407.068
	c5.128-6.713,9.938-13.684,14.394-20.897H38.072z"/>
<path style="fill:#00B764;" d="M473.932,390.362c-0.888,1.431-1.776,2.842-2.696,4.253c-0.408,0.658-0.836,1.306-1.275,1.954
	c-0.439,0.679-0.888,1.348-1.337,2.017c-0.543,0.805-1.087,1.609-1.64,2.414c-0.637,0.919-1.275,1.839-1.923,2.758
	c-1.139,1.588-2.288,3.176-3.448,4.744c-0.136,0.188-0.282,0.376-0.418,0.564c-0.554,0.731-1.108,1.463-1.661,2.194H256.001v-20.898
	L473.932,390.362L473.932,390.362z"/>
<g>
</g>
<g>
</g>
<g>
</g>
<g>
</g>
<g>
</g>
<g>
</g>
<g>
</g>
<g>
</g>
<g>
</g>
<g>
</g>
<g>
</g>
<g>
</g>
<g>
</g>
<g>
</g>
<g>
</g>
</svg>
